<svg xmlns="http://www.w3.org/2000/svg" viewBox="0 0 64 64">
  <defs>
    <linearGradient id="bg" x1="8" y1="6" x2="56" y2="58" gradientUnits="userSpaceOnUse">
      <stop stop-color="#2f7cf6"/>
      <stop offset="0.55" stop-color="#36b8ff"/>
      <stop offset="1" stop-color="#57d68d"/>
    </linearGradient>
    <linearGradient id="card" x1="16" y1="18" x2="50" y2="48" gradientUnits="userSpaceOnUse">
      <stop stop-color="#ffffff" stop-opacity="0.96"/>
      <stop offset="1" stop-color="#dbeafe" stop-opacity="0.92"/>
    </linearGradient>
    <filter id="shadow" x="-20%" y="-20%" width="140%" height="150%">
      <feDropShadow dx="0" dy="5" stdDeviation="4" flood-color="#001a3a" flood-opacity="0.32"/>
    </filter>
  </defs>
  <rect width="64" height="64" rx="16" fill="#080b10"/>
  <rect x="6" y="6" width="52" height="52" rx="14" fill="url(#bg)"/>
  <path d="M12 18c5-6 12-9 21-8 9 1 15 6 19 14 4 9 2 18-4 25-5 6-13 8-22 6-8-2-14-7-17-15-3-8-2-16 3-22Z" fill="#ffffff" opacity="0.12"/>
  <g filter="url(#shadow)">
    <path d="M17 22h30c2.2 0 4 1.8 4 4v18c0 2.2-1.8 4-4 4H17c-2.2 0-4-1.8-4-4V26c0-2.2 1.8-4 4-4Z" fill="url(#card)"/>
    <path d="m15 26 15.2 11.1c1.1.8 2.5.8 3.6 0L49 26" fill="none" stroke="#1e3a8a" stroke-width="3" stroke-linecap="round" stroke-linejoin="round"/>
  </g>
  <circle cx="47" cy="18" r="8" fill="#ffbe5c" stroke="#fff7ed" stroke-width="3"/>
  <path d="M47 14v4l3 2" fill="none" stroke="#7c2d12" stroke-width="2.2" stroke-linecap="round" stroke-linejoin="round"/>
</svg>
